<svg width="240" height="240" viewBox="0 0 240 240" fill="none" xmlns="http://www.w3.org/2000/svg">
<path d="M115.198 55.3378C115.201 55.797 115.132 56.2539 114.995 56.692C114.535 58.0288 112.836 59.0374 111.199 59.0724C110.235 59.068 109.295 58.7704 108.504 58.2191C106.972 57.2456 106.279 55.8126 106.021 55.3378C105.178 53.7823 103.176 51.8374 98.0089 50.2731C94.8383 49.3175 91.5453 48.8296 88.2339 48.8248C82.9076 48.8241 77.658 50.0931 72.9202 52.5266C68.1824 54.9602 64.0929 58.488 60.9909 62.8177C57.8889 67.1474 55.8637 72.1542 55.0833 77.423C54.3028 82.6917 54.7896 88.0706 56.5032 93.1136C58.2169 98.1567 61.108 102.719 64.9369 106.421C68.7658 110.124 73.4222 112.86 78.5199 114.403C83.6176 115.947 89.0098 116.253 94.2494 115.296C99.4889 114.339 104.425 112.147 108.648 108.901L111.085 111.914C105.227 116.258 98.2598 118.856 90.9879 119.407C83.716 119.959 76.4364 118.441 69.9903 115.03C63.5443 111.62 58.1949 106.455 54.5602 100.132C50.9255 93.8095 49.1539 86.5876 49.4501 79.3008C49.7463 72.014 52.0983 64.9597 56.2341 58.953C60.37 52.9464 66.121 48.2326 72.8226 45.3562C79.5243 42.4799 86.903 41.5584 94.1062 42.6983C101.309 43.8382 108.043 46.9929 113.529 51.798C113.59 51.8483 113.649 51.9008 113.708 51.9533C114.179 52.3828 114.554 52.9056 114.81 53.4884C115.067 54.0712 115.199 54.7011 115.198 55.3378Z" fill="white"/>
<path d="M117.581 65.1894C119.555 65.1894 121.156 63.5888 121.156 61.6145C121.156 59.6402 119.555 58.0397 117.581 58.0397C115.606 58.0397 114.006 59.6402 114.006 61.6145C114.006 63.5888 115.606 65.1894 117.581 65.1894Z" fill="white"/>
<path d="M156.952 144.092C155.707 137.795 156.991 134.262 154.165 130.09C153.886 129.674 153.579 129.277 153.246 128.902C151.165 126.579 147.923 125.017 144.867 125.017C140.025 125.017 135.897 128.215 134.232 132.729C133.44 133.34 132.449 133.636 131.451 133.56C132.224 133.894 132.873 134.46 133.308 135.181C133.743 135.901 133.942 136.74 133.878 137.579C134.211 136.805 134.778 136.155 135.5 135.719C136.221 135.284 137.061 135.085 137.901 135.15C136.986 134.758 136.248 134.04 135.831 133.135C137.503 129.289 141.058 126.765 144.856 126.745C148.989 126.723 151.677 129.67 152.076 130.129C153.563 131.841 154.447 133.993 154.591 136.255C154.627 136.966 154.651 137.986 154.591 139.215C154.532 140.513 154.491 141.403 154.228 142.484C153.941 143.622 153.49 144.713 152.889 145.722C151.701 147.859 149.682 150.362 146.451 151.607C145.293 152.045 142.48 153.138 139.728 151.859C139.189 151.607 137.575 150.828 136.768 148.999C136.267 147.83 136.158 146.531 136.455 145.295C136.598 144.684 136.864 144.108 137.236 143.602C137.343 143.456 137.461 143.319 137.588 143.191C139.299 141.473 142.34 141.727 145.147 141.961C148.043 142.202 149.665 142.93 150.36 142.073C150.872 141.442 150.684 140.202 150.1 139.43C148.442 137.242 142.915 137.94 139.227 140.322C138.24 140.961 137.349 141.738 136.584 142.63C136.195 143.086 135.845 143.573 135.538 144.088C135.058 144.896 134.707 145.774 134.497 146.691C134.311 147.511 133.996 149.003 134.617 150.657C135.437 152.845 137.345 153.88 137.7 154.064C142.117 156.368 148.538 152.648 151.822 149.688C152.585 148.998 153.292 148.247 153.935 147.444C154.075 148.405 154.113 149.379 154.047 150.349C153.937 151.985 153.596 152.651 154.047 153.329C154.675 154.274 156.189 154.261 156.392 154.259C156.488 154.259 157.762 154.232 158.442 153.589C159.315 152.764 157.716 147.951 156.952 144.092Z" fill="white"/>
<path d="M138.223 97.3957C136.4 88.1698 138.282 82.9935 134.14 76.8852C133.73 76.2734 133.28 75.6888 132.795 75.135C129.747 71.733 124.995 69.4468 120.519 69.4468C113.424 69.4468 107.364 74.133 104.938 80.7445C103.778 81.6415 102.326 82.0751 100.864 81.9609C101.997 82.4483 102.95 83.2785 103.587 84.3347C104.225 85.391 104.516 86.6204 104.419 87.8504C104.906 86.7158 105.737 85.7625 106.794 85.1244C107.851 84.4863 109.082 84.1956 110.313 84.2931C108.972 83.717 107.892 82.6649 107.281 81.3396C109.742 75.7126 114.953 72.0218 120.519 71.9934C126.57 71.9605 130.513 76.2792 131.108 76.9531C133.286 79.4585 134.581 82.6099 134.794 85.923C134.845 86.9644 134.882 88.4586 134.794 90.2592C134.707 92.1604 134.648 93.4665 134.263 95.0482C133.834 96.7187 133.165 98.3179 132.276 99.7957C130.526 102.926 127.577 106.593 122.842 108.418C121.147 109.074 117.025 110.658 112.997 108.785C112.21 108.418 109.845 107.276 108.661 104.598C107.928 102.885 107.768 100.981 108.204 99.17C108.413 98.2741 108.803 97.4301 109.348 96.6891C109.504 96.4757 109.676 96.2746 109.862 96.0874C112.369 93.5715 116.824 93.9434 120.937 94.2869C125.181 94.6391 127.555 95.7068 128.574 94.4488C129.325 93.5255 129.049 91.7097 128.194 90.5786C125.763 87.3669 117.668 88.3908 112.264 91.8913C110.818 92.8271 109.514 93.9662 108.392 95.2736C107.822 95.9408 107.31 96.6552 106.861 97.4089C106.155 98.5927 105.638 99.8792 105.329 101.222C105.058 102.423 104.596 104.611 105.506 107.033C106.707 110.229 109.503 111.754 110.022 112.023C116.493 115.399 125.901 109.949 130.712 105.6C131.829 104.59 132.864 103.492 133.808 102.318C134.013 103.728 134.068 105.155 133.972 106.576C133.812 108.982 133.315 109.947 133.972 110.951C134.891 112.336 137.109 112.316 137.406 112.314C137.549 112.314 139.413 112.275 140.41 111.332C141.684 110.1 139.34 103.06 138.223 97.3957Z" fill="white"/>
<path d="M176.592 133.251C176.866 134.916 177.655 136.453 178.848 137.646C180.041 138.839 181.578 139.628 183.243 139.902C181.581 140.177 180.048 140.966 178.857 142.156C177.666 143.347 176.878 144.881 176.603 146.542C176.326 144.883 175.538 143.351 174.348 142.161C173.159 140.972 171.627 140.183 169.967 139.907C171.628 139.627 173.159 138.835 174.347 137.641C175.535 136.448 176.32 134.913 176.592 133.251Z" fill="white"/>
<path d="M202.879 160.361C202.785 161.412 203.023 162.466 203.559 163.374C204.096 164.282 204.905 164.998 205.871 165.422C204.824 165.327 203.773 165.562 202.867 166.094C201.96 166.626 201.243 167.429 200.816 168.39C200.907 167.345 200.669 166.298 200.135 165.395C199.601 164.491 198.798 163.778 197.839 163.353C198.886 163.444 199.935 163.204 200.838 162.668C201.742 162.133 202.456 161.327 202.878 160.366L202.879 160.361Z" fill="white"/>
<path d="M27.35 95.8074C28.6581 97.8104 30.5608 99.3532 32.7908 100.219C35.0208 101.085 37.4661 101.231 39.7832 100.636C37.7866 101.945 36.2492 103.845 35.3861 106.071C34.5231 108.297 34.3776 110.737 34.97 113.049V113.062L34.9591 113.047C33.6504 111.053 31.7515 109.517 29.5275 108.654C27.3036 107.791 24.8658 107.644 22.5544 108.234H22.5347C24.5351 106.926 26.0759 105.024 26.941 102.796C27.8062 100.568 27.9522 98.125 27.3587 95.8096L27.35 95.8074Z" fill="white"/>
<path d="M198.004 54.093C197.583 56.095 197.8 58.1786 198.624 60.0512C199.448 61.9237 200.838 63.4911 202.598 64.5331C200.598 64.1158 198.518 64.3344 196.649 65.1583C194.78 65.9821 193.215 67.3699 192.173 69.1274V69.1384V69.1209C192.588 67.1224 192.369 65.0443 191.545 63.1768C190.721 61.3093 189.335 59.7459 187.579 58.7048H187.566C189.567 59.1235 191.648 58.9057 193.519 58.0817C195.39 57.2578 196.956 55.8692 197.997 54.1105L198.004 54.093Z" fill="white"/>
<path d="M63.8882 137.914C63.9561 137.604 64.0874 137.311 64.2738 137.054C64.4601 136.798 64.6976 136.582 64.9712 136.421C66.5442 135.524 68.3447 137.99 72.1208 138.99C73.0747 139.244 76.8596 140.248 79.5703 138.172C79.9444 137.885 81.4124 136.758 81.5808 135.155C81.9353 131.757 76.3301 127.312 71.1538 127.373C65.0937 127.443 58.9635 133.68 59.3398 140.629C59.7052 147.192 65.796 152.561 70.6835 152.316C74.744 152.114 77.1024 149.771 77.1024 149.771C78.3845 148.5 79.0386 146.91 80.0625 147.034C80.756 147.12 81.3358 147.953 81.4605 148.71C81.7821 150.664 79.1349 152.478 78.2751 153.066C77.9754 153.274 74.628 155.506 70.5697 155.206C64.5008 154.755 57.2089 148.686 57.3292 140.499C57.443 132.623 64.3761 126.106 71.1823 126.18C76.457 126.24 82.6091 130.269 82.8366 134.969C82.9526 137.31 81.559 139.029 81.198 139.476C76.7021 145.041 65.8703 141.915 64.3673 139.662C64.0034 139.155 63.8334 138.535 63.8882 137.914Z" fill="white"/>
<path d="M83.2851 147.592C84.416 147.592 85.3328 146.676 85.3328 145.545C85.3328 144.414 84.416 143.497 83.2851 143.497C82.1541 143.497 81.2373 144.414 81.2373 145.545C81.2373 146.676 82.1541 147.592 83.2851 147.592Z" fill="white"/>
<path d="M201.629 137.914C201.698 137.603 201.831 137.309 202.019 137.052C202.207 136.796 202.447 136.581 202.723 136.421C204.296 135.524 206.096 137.99 209.873 138.99C210.826 139.244 214.611 140.248 217.311 138.172C217.687 137.885 219.155 136.758 219.322 135.155C219.678 131.757 214.071 127.312 208.895 127.373C202.837 127.443 196.704 133.68 197.081 140.629C197.444 147.192 203.534 152.561 208.422 152.316C212.485 152.114 214.843 149.771 214.843 149.771C216.123 148.5 216.779 146.91 217.803 147.034C218.495 147.12 219.074 147.953 219.199 148.71C219.521 150.664 216.876 152.478 216.016 153.066C215.716 153.274 212.369 155.506 208.308 155.206C202.242 154.755 194.95 148.686 195.07 140.499C195.184 132.623 202.117 126.106 208.921 126.18C214.198 126.24 220.348 130.269 220.577 134.969C220.691 137.31 219.3 139.029 218.939 139.476C214.443 145.041 203.609 141.915 202.108 139.662C201.743 139.156 201.573 138.535 201.629 137.914Z" fill="white"/>
<path d="M221.03 147.592C222.161 147.592 223.078 146.676 223.078 145.545C223.078 144.414 222.161 143.497 221.03 143.497C219.899 143.497 218.982 144.414 218.982 145.545C218.982 146.676 219.899 147.592 221.03 147.592Z" fill="white"/>
<path d="M174.12 87.1241C174.22 86.6657 174.414 86.233 174.69 85.8531C174.965 85.4732 175.317 85.1544 175.721 84.9166C178.051 83.5887 180.716 87.2379 186.308 88.7212C187.719 89.0953 193.324 90.5808 197.334 87.5092C197.888 87.0825 200.062 85.4176 200.31 83.0417C200.837 78.0098 192.547 71.4311 184.873 71.5208C175.903 71.6258 166.826 80.8605 167.397 91.1474C167.937 100.877 176.955 108.812 184.19 108.451C190.202 108.149 193.694 104.681 193.694 104.681C195.591 102.8 196.562 100.443 198.069 100.629C199.093 100.754 199.953 101.99 200.137 103.11C200.614 106.003 196.695 108.687 195.422 109.562C194.985 109.866 190.023 113.172 184.013 112.726C175.03 112.069 164.233 103.073 164.41 90.9549C164.581 79.2875 174.844 69.6437 184.921 69.7553C192.731 69.8428 201.837 75.8067 202.176 82.766C202.347 86.2315 200.283 88.7781 199.75 89.4388C193.097 97.678 177.064 93.0508 174.84 89.7144C173.91 88.3165 174.12 87.1241 174.12 87.1241Z" fill="white"/>
<path d="M202.834 101.456C204.509 101.456 205.867 100.099 205.867 98.4241C205.867 96.7494 204.509 95.3918 202.834 95.3918C201.16 95.3918 199.802 96.7494 199.802 98.4241C199.802 100.099 201.16 101.456 202.834 101.456Z" fill="white"/>
<path d="M192.878 125.957C194.234 123.857 196.002 122.833 195.722 121.214C195.569 120.339 194.873 119.591 194.116 119.23C192.852 118.628 191.613 119.204 191.429 119.291C190.038 119.965 189.491 121.566 189.159 122.903C188.456 125.736 188.43 128.569 188.828 132.243C186.989 129.535 184.283 127.533 181.156 126.564C178.029 125.596 174.666 125.719 171.618 126.913C168.57 128.107 166.018 130.301 164.381 133.136C162.744 135.97 162.118 139.277 162.607 142.514C163.096 145.751 164.671 148.726 167.072 150.95C169.474 153.175 172.56 154.517 175.824 154.758C179.089 154.998 182.339 154.122 185.04 152.273C187.741 150.424 189.734 147.712 190.692 144.582C191.063 147.41 191.172 150.266 191.018 153.114C190.55 159.087 187.955 164.204 187.596 164.928C187.253 165.585 186.953 166.16 186.588 166.775C172.82 189.064 127.736 192.055 126.266 191.961C125.872 191.934 116.609 191.788 109.733 190.228C100.763 188.195 94.8563 184.977 91.8984 187.756C90.7914 188.797 90.2204 190.556 90.5726 192.015C91.8196 197.17 104.605 198.067 110.328 198.471C121.705 199.274 131.149 197.76 137.774 196.316C160.794 191.298 174.163 181.787 178.587 178.394C183.875 174.338 187.557 170.435 189.909 165.11C191.531 161.338 192.44 157.298 192.589 153.195C192.666 148.647 191.696 141.6 191.314 138.824C191.095 137.159 190.775 135.115 191.095 132.378C191.362 130.16 191.521 128.071 192.878 125.957ZM176.889 153.252C174.339 153.252 171.845 152.496 169.724 151.079C167.603 149.661 165.95 147.647 164.974 145.291C163.998 142.934 163.743 140.341 164.24 137.839C164.738 135.337 165.966 133.039 167.77 131.236C169.574 129.432 171.872 128.204 174.373 127.706C176.875 127.208 179.468 127.464 181.825 128.44C184.182 129.416 186.196 131.069 187.613 133.19C189.03 135.311 189.786 137.804 189.786 140.355C189.786 143.776 188.428 147.056 186.009 149.475C183.59 151.893 180.31 153.252 176.889 153.252Z" fill="white"/>
<path d="M95.377 164.351C93.408 163.038 90.6601 165.265 85.4685 167.479C81.8149 169.037 71.6417 173.076 63.5337 169.267C59.6198 167.427 57.4605 165.434 56.8304 164.517C48.5452 152.484 50.6061 134.918 52.1638 128.16C52.2341 127.85 52.1855 127.525 52.0275 127.249C51.8694 126.973 51.6136 126.767 51.3106 126.671C51.0278 126.592 50.7263 126.619 50.4615 126.745C50.1966 126.871 49.9862 127.089 49.8688 127.357L41.6187 147.761L32.2812 129.863C31.4351 128.205 30.1031 126.846 28.4636 125.966C28.3607 125.911 28.2448 125.859 28.1463 125.806C27.3609 125.432 23.6964 123.813 20.2484 125.64C19.6293 125.968 18.0497 126.806 17.2862 128.6C16.0588 131.499 17.5706 135.459 19.6927 136.039C20.1421 136.149 20.6119 136.148 21.0604 136.033C21.5089 135.919 21.9221 135.695 22.2634 135.382C22.3575 135.29 23.1385 134.507 23.0291 133.52C22.8913 132.324 21.5939 132.208 20.9791 130.821C20.5569 129.873 20.5416 128.535 21.1454 127.655C22.3224 125.94 25.5954 126.406 27.8335 127.384C28.5674 127.706 29.2035 128.216 29.6778 128.863C29.5421 134.667 29.3452 141.114 29.1855 147.192C29.1024 150.327 27.1793 153.051 24.3396 154.379C24.2674 154.412 24.1974 154.449 24.1208 154.486L35.6461 154.374C32.8741 152.823 30.9883 150.369 30.9358 147.196C30.8439 141.878 30.8264 136.039 30.7564 130.764L41.7522 151.06L50.803 128.414C45.9155 144.643 48.3965 159.043 54.6798 167.199C56.0428 168.965 60.0858 171.964 62.9759 173.008C68.57 175.029 73.3897 174.907 78.6951 174.703C83.5345 174.517 94.364 172.901 96.2718 171.277C98.2605 169.582 97.1075 165.512 95.377 164.351Z" fill="white"/>
<path d="M106.419 133.628C103.824 132.431 99.1049 130.248 96.2148 130.09C92.6116 129.895 88.4898 132.683 88.2819 135.472C88.0981 137.975 91.0932 140.053 91.5789 140.379C97.5406 144.387 104.487 139.285 109.339 143.501C109.862 143.956 111.201 145.118 111.267 146.739C111.413 150.415 104.922 154.204 99.083 154.668C94.1014 155.064 88.4373 153.136 88.2819 151.056C88.1944 149.883 89.8571 148.518 91.4848 148.19C94.4668 147.586 95.6963 150.73 99.6409 151.578C104.399 152.6 110.142 149.625 110.403 146.866C110.508 145.715 109.639 144.761 109.258 144.352C105.051 139.858 97.0068 145.38 90.4807 140.928C89.914 140.541 86.9255 138.498 86.663 135.24C86.3961 131.939 89.1067 129.471 89.6427 128.983C95.0509 124.06 103.837 127.624 104.631 127.959C105.172 128.178 109.812 130.191 109.584 132.206C109.522 132.567 109.368 132.907 109.139 133.193C108.909 133.479 108.611 133.702 108.272 133.842C107.51 134.14 106.723 133.77 106.419 133.628Z" fill="white"/>
<path d="M126.599 133.628C124.006 132.431 119.287 130.248 116.395 130.09C112.792 129.895 108.67 132.683 108.464 135.472C108.278 137.975 111.276 140.053 111.761 140.379C117.723 144.387 124.669 139.285 129.522 143.501C130.045 143.956 131.381 145.118 131.447 146.739C131.596 150.415 125.102 154.204 119.263 154.668C114.284 155.064 108.62 153.136 108.464 151.056C108.377 149.883 110.039 148.518 111.667 148.19C114.649 147.586 115.879 150.73 119.821 151.578C124.582 152.6 130.322 149.625 130.585 146.866C130.69 145.715 129.821 144.761 129.439 144.352C125.234 139.858 117.187 145.38 110.661 140.928C110.096 140.541 107.108 138.498 106.845 135.24C106.576 131.939 109.289 129.471 109.823 128.983C115.231 124.06 124.017 127.624 124.811 127.959C125.352 128.178 129.994 130.191 129.765 132.206C129.702 132.567 129.549 132.907 129.319 133.193C129.09 133.479 128.791 133.703 128.452 133.842C127.693 134.14 126.905 133.77 126.599 133.628Z" fill="white"/>
<path d="M145.072 112.513H148.945C148.391 107.105 145.007 73.527 146.823 59.7877C146.941 58.8929 147.304 56.3835 149.205 54.3883C153.986 49.3739 165.889 50.3365 169.055 55.8781C169.245 56.2129 170.893 59.1883 169.781 61.7436C168.823 63.9467 166.454 64.3689 166.484 66.0995C166.506 67.3159 167.694 68.2873 168.532 68.6876C170.186 69.484 172.14 68.8736 173.188 68.1101C176.117 65.977 175.997 59.6849 173.783 55.4209C170.851 49.7852 164.227 47.6827 159.409 47.674C158.481 47.674 150.905 47.768 147.157 53.0734C145.234 55.7994 145.11 58.7791 145.072 60.1115C144.845 68.0838 144.746 87.146 145.072 112.513Z" fill="white"/>
<path d="M138.802 76.1502C138.826 76.4084 138.946 76.6482 139.139 76.8217C139.331 76.9953 139.582 77.0899 139.842 77.0866C148.178 76.9637 156.501 77.7775 164.655 79.5128C165.145 79.6161 165.656 79.5483 166.102 79.3205C166.548 79.0928 166.902 78.7189 167.106 78.2614L167.125 78.2155C167.27 77.8944 167.335 77.5432 167.315 77.1917C167.294 76.8402 167.19 76.4987 167.009 76.1963C166.829 75.8939 166.578 75.6395 166.278 75.4548C165.979 75.27 165.639 75.1604 165.288 75.1351C160.934 74.82 156.298 74.6362 151.408 74.6428C147.337 74.6428 143.451 74.785 139.767 75.0191C139.629 75.0276 139.493 75.0639 139.369 75.1258C139.245 75.1878 139.134 75.2741 139.044 75.3797C138.954 75.4853 138.887 75.6079 138.845 75.7403C138.803 75.8727 138.789 76.0121 138.802 76.1502Z" fill="white"/>
<path d="M140.068 198.296C139.681 198.39 139.352 198.633 139.153 198.978C138.954 199.323 138.902 199.74 139.007 200.133C139.113 200.526 139.366 200.862 139.711 201.06C140.055 201.259 140.463 201.305 140.845 201.194C141.932 200.876 142.996 200.554 144.038 200.226C162.581 194.197 182.533 185.006 191.379 166.76C191.803 165.757 192.198 164.682 192.416 163.646C192.15 164.67 191.709 165.721 191.242 166.698C181.631 184.365 161.714 192.385 143.244 197.488C142.207 197.763 141.149 198.032 140.068 198.296Z" fill="white"/>
<path d="M78.9165 38.9761C79.3132 38.9442 79.702 39.0724 79.9977 39.3387C80.2934 39.6047 80.4718 39.9869 80.4933 40.3952C80.5148 40.8034 80.3775 41.2023 80.1114 41.4978C79.8453 41.7937 79.4721 41.962 79.0742 41.9719C78.363 42.0001 77.418 42.1348 76.5811 42.2945C68.8796 43.8011 61.7853 48.341 56.4966 54.4117C51.0653 60.5662 47.4946 68.5184 47.1154 76.8818C47.08 77.8067 47.0785 78.7332 47.1631 79.6353C47.0287 78.7387 46.9799 77.8101 46.9654 76.8798C46.8857 68.4694 50.0537 60.1225 55.3319 53.4461C60.462 46.883 67.6063 41.6346 75.9675 39.5113C76.9182 39.2807 77.8291 39.0836 78.9165 38.9761Z" fill="white"/>
</svg>
