<svg width="64" height="64" viewBox="0 0 64 64" fill="none" xmlns="http://www.w3.org/2000/svg">
<rect width="64" height="64" rx="5.83409" fill="#09090B"/>
<path d="M32.7556 28.2118C34.0778 26.9911 35.6052 26.0099 37.2687 25.3127C37.4218 25.2484 37.5536 25.1424 37.6486 25.007C37.7436 24.8715 37.7981 24.7121 37.8056 24.5472C37.8132 24.3823 37.7735 24.2186 37.6913 24.0752C37.609 23.9317 37.4875 23.8143 37.3408 23.7365C34.0643 22.127 29.455 23.192 26.1976 26.5736C22.7671 30.1414 22.0502 35.0465 24.2731 38.1749C24.4187 38.3622 24.6332 38.4845 24.8695 38.5149C25.1059 38.5453 25.3447 38.4815 25.5337 38.3373C27.285 36.9713 28.4205 35.3617 29.5608 32.773C30.3014 31.0524 31.3886 29.5002 32.7556 28.2118ZM40.1747 26.5115C40.0635 26.3216 39.8863 26.1786 39.6763 26.1091C39.4664 26.0397 39.2382 26.0486 39.0344 26.1342C35.962 27.3975 33.4428 29.7052 31.928 32.6441C31.1149 34.1868 30.5712 35.9301 29.5512 37.363C28.8372 38.3767 27.9219 39.2349 26.8616 39.8848C26.7173 39.9755 26.775 40.3242 26.9627 40.4006C30.2152 41.8096 34.6609 40.7015 37.8027 37.425C40.9446 34.1486 41.8443 29.6399 40.1747 26.5115Z" fill="white"/>
<path d="M13.9839 40.6844C14.2779 41.4262 14.3434 42.239 14.1719 43.0184L12.0419 49.5984C11.9732 49.9321 11.991 50.2777 12.0934 50.6027C12.1959 50.9276 12.3796 51.2209 12.6272 51.4549C12.8748 51.6889 13.1781 51.8558 13.5083 51.9397C13.8385 52.0236 14.1846 52.0217 14.5139 51.9344L21.3399 49.9384C22.0753 49.7925 22.8369 49.8563 23.5379 50.1224C27.8086 52.1168 32.6466 52.5388 37.1982 51.3138C41.7497 50.0888 45.7224 47.2957 48.4153 43.4271C51.1081 39.5585 52.3481 34.8632 51.9165 30.1695C51.4848 25.4757 49.4093 21.0853 46.056 17.7728C42.7027 14.4602 38.2873 12.4384 33.5886 12.0642C28.89 11.6899 24.2101 12.9871 20.3748 15.727C16.5394 18.467 13.7949 22.4734 12.6257 27.0396C11.4564 31.6058 11.9374 36.4383 13.9839 40.6844Z" stroke="white" stroke-width="2" stroke-linecap="round" stroke-linejoin="round"/>
</svg>
