<svg width="64" height="64" viewBox="0 0 64 64" fill="none" xmlns="http://www.w3.org/2000/svg">
<rect width="64" height="64" rx="32" fill="#09090B"/>
<path d="M32.7556 28.2118C34.0778 26.9911 35.6052 26.0099 37.2687 25.3127C37.4218 25.2484 37.5536 25.1424 37.6486 25.007C37.7436 24.8715 37.7981 24.7121 37.8056 24.5472C37.8132 24.3823 37.7735 24.2186 37.6913 24.0752C37.609 23.9317 37.4875 23.8143 37.3408 23.7365C34.0643 22.127 29.455 23.192 26.1976 26.5736C22.7671 30.1414 22.0502 35.0465 24.2731 38.1749C24.4187 38.3622 24.6332 38.4845 24.8695 38.5149C25.1059 38.5453 25.3447 38.4815 25.5337 38.3373C27.285 36.9713 28.4205 35.3617 29.5608 32.773C30.3014 31.0524 31.3886 29.5002 32.7556 28.2118ZM40.1747 26.5115C40.0635 26.3216 39.8863 26.1786 39.6763 26.1091C39.4664 26.0397 39.2382 26.0486 39.0344 26.1342C35.962 27.3975 33.4428 29.7052 31.928 32.6441C31.1149 34.1868 30.5712 35.9301 29.5512 37.363C28.8372 38.3767 27.9219 39.2349 26.8616 39.8848C26.7173 39.9755 26.775 40.3242 26.9627 40.4006C30.2152 41.8096 34.6609 40.7015 37.8027 37.425C40.9446 34.1486 41.8443 29.6399 40.1747 26.5115Z" fill="white"/>
<path d="M15.4851 39.9606C15.7547 40.6406 15.8147 41.3857 15.6574 42.1001L13.7049 48.1318C13.642 48.4376 13.6583 48.7545 13.7522 49.0524C13.8461 49.3502 14.0145 49.6191 14.2415 49.8336C14.4685 50.0481 14.7465 50.201 15.0491 50.2779C15.3518 50.3549 15.6691 50.3532 15.9709 50.2731L22.2281 48.4434C22.9022 48.3097 23.6004 48.3681 24.2429 48.6121C28.1578 50.4403 32.5926 50.8271 36.7649 49.7042C40.9371 48.5814 44.5788 46.0209 47.0472 42.4748C49.5157 38.9286 50.6523 34.6245 50.2566 30.3219C49.861 26.0194 47.9584 21.9948 44.8845 18.9583C41.8107 15.9218 37.7632 14.0685 33.4561 13.7254C29.149 13.3823 24.8592 14.5715 21.3434 17.083C17.8276 19.5946 15.3119 23.2672 14.2401 27.4529C13.1682 31.6386 13.6092 36.0683 15.4851 39.9606Z" stroke="white" stroke-width="3" stroke-linecap="round" stroke-linejoin="round"/>
</svg>
